<svg width="256" height="256" viewBox="0 0 256 256" fill="none" xmlns="http://www.w3.org/2000/svg">
<g clip-path="url(#clip0_2059_7527)">
<rect width="256" height="256" fill="black"/>
<path d="M195.623 159.649C206.737 164.828 211.724 178.258 204.148 187.898C197.495 196.364 189.439 203.699 180.282 209.559C164.854 219.432 146.936 224.711 128.62 224.78C110.303 224.85 92.3456 219.706 76.8436 209.95C67.6423 204.159 59.5317 196.885 52.8147 188.47C45.1663 178.887 50.0518 165.419 61.1259 160.157V160.157C72.2001 154.895 85.2588 160.171 94.6264 168.081C96.4728 169.64 98.4322 171.075 100.493 172.372C108.864 177.64 118.561 180.418 128.452 180.38C138.343 180.343 148.018 177.492 156.35 172.161C158.4 170.848 160.349 169.399 162.183 167.826C171.491 159.845 184.509 154.471 195.623 159.649V159.649Z" fill="url(#paint0_linear_2059_7527)"/>
<path d="M60.8926 96.8694C49.779 91.691 44.792 78.2606 52.3678 68.6203C59.021 60.1541 67.0764 52.8193 76.2338 46.9593C91.6616 37.0866 109.58 31.8073 127.896 31.7382C146.212 31.669 164.17 36.8127 179.672 46.5686C188.873 52.3594 196.984 59.6331 203.701 68.0488C211.349 77.6316 206.464 91.0992 195.39 96.3615V96.3615C184.316 101.624 171.257 96.348 161.889 88.4374C160.043 86.8782 158.083 85.4436 156.023 84.1468C147.652 78.8786 137.955 76.101 128.064 76.1383C118.173 76.1757 108.497 79.0265 100.166 84.3577C98.1153 85.6701 96.1668 87.1195 94.3323 88.6926C85.0247 96.6736 72.0062 102.048 60.8926 96.8694V96.8694Z" fill="url(#paint1_linear_2059_7527)"/>
<path d="M159.649 60.8926C164.828 49.779 178.258 44.7919 187.898 52.3678C196.364 59.0209 203.699 67.0764 209.559 76.2337C219.432 91.6615 224.711 109.58 224.78 127.896C224.85 146.212 219.706 164.17 209.95 179.672C204.159 188.873 196.885 196.984 188.47 203.701C178.887 211.349 165.419 206.464 160.157 195.39V195.39C154.895 184.316 160.171 171.257 168.081 161.889C169.64 160.043 171.075 158.083 172.372 156.023C177.64 147.652 180.418 137.955 180.38 128.064C180.343 118.173 177.492 108.497 172.161 100.166C170.848 98.1153 169.399 96.1668 167.826 94.3322C159.845 85.0247 154.471 72.0061 159.649 60.8926V60.8926Z" fill="url(#paint2_linear_2059_7527)"/>
<path d="M96.8665 195.626C91.688 206.74 78.2577 211.727 68.6174 204.151C60.1512 197.498 52.8164 189.442 46.9564 180.285C37.0837 164.857 31.8044 146.939 31.7352 128.622C31.6661 110.306 36.8098 92.3485 46.5657 76.8466C52.3564 67.6452 59.6302 59.5346 68.0459 52.8177C77.6287 45.1692 91.0963 50.0547 96.3586 61.1289V61.1289C101.621 72.203 96.3451 85.2617 88.4345 94.6293C86.8753 96.4757 85.4407 98.4351 84.1439 100.496C78.8757 108.867 76.0981 118.564 76.1354 128.455C76.1728 138.345 79.0235 148.021 84.3548 156.352C85.6672 158.403 87.1165 160.352 88.6897 162.186C96.6707 171.494 102.045 184.512 96.8665 195.626V195.626Z" fill="url(#paint3_linear_2059_7527)"/>
</g>
<defs>
<linearGradient id="paint0_linear_2059_7527" x1="128.255" y1="128.258" x2="87.4877" y2="215.749" gradientUnits="userSpaceOnUse">
<stop stop-color="white"/>
<stop offset="1" stop-color="white" stop-opacity="0"/>
</linearGradient>
<linearGradient id="paint1_linear_2059_7527" x1="128.261" y1="128.26" x2="169.028" y2="40.7693" gradientUnits="userSpaceOnUse">
<stop stop-color="white"/>
<stop offset="1" stop-color="white" stop-opacity="0"/>
</linearGradient>
<linearGradient id="paint2_linear_2059_7527" x1="128.258" y1="128.261" x2="215.749" y2="169.028" gradientUnits="userSpaceOnUse">
<stop stop-color="white"/>
<stop offset="1" stop-color="white" stop-opacity="0"/>
</linearGradient>
<linearGradient id="paint3_linear_2059_7527" x1="128.257" y1="128.258" x2="40.7663" y2="87.4906" gradientUnits="userSpaceOnUse">
<stop stop-color="white"/>
<stop offset="1" stop-color="white" stop-opacity="0"/>
</linearGradient>
<clipPath id="clip0_2059_7527">
<rect width="256" height="256" fill="white"/>
</clipPath>
</defs>
</svg>
