<?xml version="1.0" standalone="no"?>
<!DOCTYPE svg PUBLIC "-//W3C//DTD SVG 20010904//EN"
 "http://www.w3.org/TR/2001/REC-SVG-20010904/DTD/svg10.dtd">
<svg version="1.0" xmlns="http://www.w3.org/2000/svg"
 width="400.000000pt" height="400.000000pt" viewBox="0 0 400.000000 400.000000"
 preserveAspectRatio="xMidYMid meet">

<g transform="translate(0.000000,400.000000) scale(0.100000,-0.100000)"
fill="#000000" stroke="none">
<path d="M0 2000 l0 -2000 2000 0 2000 0 0 2000 0 2000 -2000 0 -2000 0 0
-2000z m1365 1184 c49 -25 90 -61 147 -132 10 -13 24 -19 33 -16 8 4 15 1 15
-6 0 -10 3 -10 15 0 13 10 15 9 15 -9 0 -12 4 -20 9 -17 5 3 45 -12 89 -34 44
-22 85 -40 90 -40 5 0 15 -6 21 -13 10 -13 82 -41 108 -42 6 0 19 -8 30 -16
10 -9 28 -20 41 -23 33 -11 27 -24 -15 -31 -247 -38 -359 -88 -524 -232 -194
-169 -479 -162 -600 14 -84 121 -76 227 27 354 61 77 181 187 259 241 51 34
58 36 119 33 45 -3 82 -12 121 -31z m1501 6 c59 -29 251 -218 308 -304 22 -33
40 -74 41 -92 4 -49 -12 -121 -37 -171 -21 -43 -109 -133 -129 -133 -5 0 -9
-8 -9 -18 0 -10 -13 -42 -28 -72 -16 -30 -34 -72 -41 -93 -7 -20 -17 -37 -22
-37 -5 0 -9 -5 -9 -10 0 -6 -13 -40 -30 -75 -16 -35 -30 -72 -30 -82 0 -21
-20 -55 -20 -35 0 25 -20 11 -20 -15 0 -28 -15 -61 -24 -53 -2 3 -11 48 -20
100 -31 182 -84 295 -204 437 -96 114 -133 198 -140 319 -3 60 0 95 12 132 62
186 244 277 402 202z m-1671 -1227 c22 -137 31 -176 56 -244 37 -96 85 -176
157 -258 31 -36 59 -68 62 -71 12 -10 59 -127 70 -172 19 -74 9 -183 -22 -248
-72 -154 -246 -228 -380 -162 -65 32 -230 191 -299 288 -55 76 -57 81 -53 134
1 30 8 73 14 95 15 53 70 128 122 165 29 21 42 38 43 56 0 15 7 31 15 38 8 6
16 20 18 31 2 11 17 44 33 74 16 30 29 60 29 66 0 7 8 23 19 36 17 23 32 62
46 122 4 19 11 27 20 23 10 -3 16 5 21 29 8 46 22 44 29 -2z m1838 -446 c154
-76 223 -245 157 -383 -30 -62 -209 -243 -303 -306 -64 -43 -71 -45 -129 -42
-105 5 -195 60 -273 166 -14 20 -22 24 -28 15 -7 -9 -10 -9 -14 1 -2 6 -11 12
-19 12 -8 0 -14 5 -14 11 0 5 -4 8 -9 5 -4 -3 -25 4 -47 14 -21 11 -43 20 -50
20 -6 0 -17 6 -23 14 -7 8 -24 17 -39 21 -15 4 -34 12 -42 19 -8 7 -36 20 -63
29 -26 9 -54 23 -63 31 -8 9 -29 16 -45 16 -50 0 -36 28 19 35 102 15 187 36
256 65 111 46 165 83 286 194 25 22 52 42 60 43 8 1 44 13 80 27 55 22 78 26
155 23 76 -2 99 -7 148 -30z"/>
</g>
</svg>
