<svg width="128" height="128" viewBox="0 0 128 128" fill="none" xmlns="http://www.w3.org/2000/svg">
<g clip-path="url(#clip0_2_8)">
<rect width="128" height="128" fill="#151C34"/>
<path d="M97.6159 79.6634C103.162 82.2474 105.65 88.949 101.87 93.7594C98.5498 97.9839 94.5302 101.644 89.9608 104.568C82.2625 109.494 73.3213 112.129 64.1817 112.163C55.0421 112.198 46.0813 109.631 38.346 104.763C33.7546 101.873 29.7075 98.2439 26.3558 94.0446C22.5393 89.2629 24.9771 82.5427 30.503 79.9168V79.9168C36.0289 77.291 42.5451 79.9236 47.2194 83.8708C48.1407 84.6489 49.1185 85.3647 50.1467 86.0119C54.3238 88.6406 59.1626 90.0266 64.098 90.008C69.0334 89.9894 73.8616 88.5668 78.0187 85.9066C79.0421 85.2517 80.0143 84.5285 80.9298 83.7436C85.5742 79.7611 92.0703 77.0794 97.6159 79.6634V79.6634Z" fill="url(#paint0_linear_2_8)"/>
<path d="M30.3841 48.3366C24.8385 45.7526 22.35 39.051 26.1303 34.2406C29.4502 30.016 33.4698 26.3561 38.0392 23.432C45.7376 18.5056 54.6787 15.8713 63.8183 15.8368C72.9579 15.8023 81.9187 18.369 89.654 23.237C94.2454 26.1265 98.2926 29.7561 101.644 33.9554C105.461 38.7371 103.023 45.4573 97.497 48.0832V48.0832C91.9711 50.709 85.4549 48.0764 80.7806 44.1291C79.8593 43.3511 78.8815 42.6352 77.8533 41.9881C73.6762 39.3594 68.8374 37.9734 63.902 37.992C58.9666 38.0106 54.1384 39.4331 49.9813 42.0934C48.9579 42.7482 47.9857 43.4714 47.0702 44.2564C42.4258 48.2389 35.9297 50.9206 30.3841 48.3366V48.3366Z" fill="url(#paint1_linear_2_8)"/>
<path d="M79.6638 30.3846C82.2478 24.839 88.9494 22.3505 93.7599 26.1308C97.9844 29.4506 101.644 33.4702 104.569 38.0396C109.495 45.7379 112.129 54.679 112.164 63.8186C112.198 72.9582 109.632 81.9189 104.763 89.6542C101.874 94.2456 98.2444 98.2927 94.045 101.644C89.2633 105.461 82.5431 103.023 79.9173 97.4972V97.4972C77.2914 91.9713 79.924 85.4551 83.8713 80.7808C84.6493 79.8594 85.3652 78.8818 86.0123 77.8535C88.6411 73.6765 90.0271 68.8377 90.0085 63.9023C89.9898 58.9669 88.5673 54.1387 85.907 49.9816C85.2522 48.9583 84.5289 47.986 83.744 47.0706C79.7615 42.4262 77.0798 35.9301 79.6638 30.3846V30.3846Z" fill="url(#paint2_linear_2_8)"/>
<path d="M48.3362 97.6154C45.7522 103.161 39.0505 105.649 34.2401 101.869C30.0156 98.5494 26.3556 94.5298 23.4314 89.9603C18.505 82.262 15.8707 73.321 15.8362 64.1814C15.8017 55.0418 18.3684 46.0811 23.2365 38.3458C26.126 33.7544 29.7556 29.7073 33.9549 26.3556C38.7367 22.5391 45.4569 24.9769 48.0827 30.5028V30.5028C50.7086 36.0287 48.076 42.5449 44.1287 47.2192C43.3506 48.1406 42.6348 49.1182 41.9877 50.1465C39.3589 54.3235 37.9729 59.1623 37.9915 64.0977C38.0102 69.0331 39.4327 73.8613 42.0929 78.0184C42.7478 79.0417 43.471 80.014 44.256 80.9294C48.2385 85.5738 50.9202 92.0699 48.3362 97.6154V97.6154Z" fill="url(#paint3_linear_2_8)"/>
</g>
<defs>
<linearGradient id="paint0_linear_2_8" x1="63.9998" y1="63.9997" x2="43.6574" y2="107.657" gradientUnits="userSpaceOnUse">
<stop stop-color="white"/>
<stop offset="1" stop-color="white" stop-opacity="0"/>
</linearGradient>
<linearGradient id="paint1_linear_2_8" x1="64.0002" y1="64.0003" x2="84.3426" y2="20.3431" gradientUnits="userSpaceOnUse">
<stop stop-color="white"/>
<stop offset="1" stop-color="white" stop-opacity="0"/>
</linearGradient>
<linearGradient id="paint2_linear_2_8" x1="64.0001" y1="64.0005" x2="107.657" y2="84.3431" gradientUnits="userSpaceOnUse">
<stop stop-color="white"/>
<stop offset="1" stop-color="white" stop-opacity="0"/>
</linearGradient>
<linearGradient id="paint3_linear_2_8" x1="63.9999" y1="63.9995" x2="20.3427" y2="43.6569" gradientUnits="userSpaceOnUse">
<stop stop-color="white"/>
<stop offset="1" stop-color="white" stop-opacity="0"/>
</linearGradient>
<clipPath id="clip0_2_8">
<rect width="128" height="128" fill="white"/>
</clipPath>
</defs>
</svg>
